<?xml version='1.0' encoding='utf-8'?>
<svg xmlns="http://www.w3.org/2000/svg" id="46fb55a6-8709-4ae6-90d3-f0cfbd6a3f7b" data-name="Layer 1"  viewBox="185 15 330 330"><defs><style>.\30 5bbb85d-bdca-4d07-a424-c92521b0658e{fillvar(--primary);}.c5103542-fca1-455c-8d11-e5fdc4581469{fill:#ef5326;}.d28e974d-bd82-4e75-9772-31c44c60ab07{fill:#f26f25;}.\33 ce6e046-824f-47a2-a1d2-29e158639d0d{fill:#cf2a31;}.\35 cb5732b-c5be-46c6-bd35-e9495d91d3cb{fillvar(--primary);}.a9e2be84-7f1b-4fe0-9a3f-2a213b20817c{fill:#8b2f34;}.c15bd72b-faf0-4d15-aabb-689099e08b3d{fill:#9c2d32;}.db815f1a-3b21-44a9-9697-9c336b14ecf8{fill:#672f39;}</style></defs><title>Hexagon Series</title><polygon class="05bbb85d-bdca-4d07-a424-c92521b0658e" points="384.72 87.61 304.05 271.94 211.39 98.96 384.72 87.61"/><polygon class="c5103542-fca1-455c-8d11-e5fdc4581469" points="351.1 19 211.39 98.96 384.72 87.61 351.1 19"/><polygon class="d28e974d-bd82-4e75-9772-31c44c60ab07" points="490.81 98.96 384.72 87.61 351.1 19 490.81 98.96"/><polygon class="3ce6e046-824f-47a2-a1d2-29e158639d0d" points="490 259.58 490.43 98.96 384.35 87.61 490 259.58"/><polygon class="5cb5732b-c5be-46c6-bd35-e9495d91d3cb" points="304.05 271.94 490.38 259.58 384.72 87.61 304.05 271.94"/><polygon class="a9e2be84-7f1b-4fe0-9a3f-2a213b20817c" points="351.1 341.65 304.05 271.94 490.38 259.58 351.1 341.65"/><polygon class="c15bd72b-faf0-4d15-aabb-689099e08b3d" points="211 260.28 211 98.96 303.66 271.94 211 260.28"/><polygon class="db815f1a-3b21-44a9-9697-9c336b14ecf8" points="351.1 341.65 211.39 260.28 304.05 271.94 351.1 341.65"/></svg>